<?xml version="1.0" encoding="utf-8"?>
<!-- Generator: Adobe Illustrator 16.0.0, SVG Export Plug-In . SVG Version: 6.00 Build 0)  -->
<!DOCTYPE svg PUBLIC "-//W3C//DTD SVG 1.1//EN" "http://www.w3.org/Graphics/SVG/1.1/DTD/svg11.dtd">
<svg version="1.1" xmlns="http://www.w3.org/2000/svg" xmlns:xlink="http://www.w3.org/1999/xlink" x="0px" y="0px" width="14400px"
	 height="14400px" viewBox="0 0 14400 14400" enable-background="new 0 0 14400 14400" xml:space="preserve">
<g id="Layer_1">
	<linearGradient id="SVGID_1_" gradientUnits="userSpaceOnUse" x1="4266.0073" y1="6617.2764" x2="4266.0073" y2="5151.2715">
		<stop  offset="0" style="stop-color:#E3E3E3"/>
		<stop  offset="0.1252" style="stop-color:#F1F1F1"/>
		<stop  offset="0.2927" style="stop-color:#FBFBFB"/>
		<stop  offset="0.48" style="stop-color:#FFFFFF"/>
		<stop  offset="0.9882" style="stop-color:#DFDFDF"/>
		<stop  offset="1" style="stop-color:#DEDEDE"/>
	</linearGradient>
	<rect x="2547.792" y="5151.271" display="none" fill="url(#SVGID_1_)" width="3436.429" height="1466.004"/>
	<g>
		<linearGradient id="SVGID_2_" gradientUnits="userSpaceOnUse" x1="1577.8418" y1="10677.5361" x2="1577.8414" y2="3530.0547">
			<stop  offset="0" style="stop-color:#439E97"/>
			<stop  offset="0.0567" style="stop-color:#46A29C"/>
			<stop  offset="0.2565" style="stop-color:#4EABA6"/>
			<stop  offset="0.48" style="stop-color:#51AEAA"/>
			<stop  offset="1" style="stop-color:#439E97"/>
		</linearGradient>
		<path fill="url(#SVGID_2_)" d="M109.403,9865.71c0,0,2.857,371.057,100.117,191.132
			c364.061-673.514,1419.838-2375.498,2002.336-3849.944c632.831-1601.854,218.435-2275.381-163.829-2630.341
			c-280.201-260.185-1920.421,509.686-1683.781,3886.35c238.435,3402.301,1447.142,3622.408,2056.944,2839.677
			c609.801-782.731,810.035-1529.056,436.874-1174.097c-373.164,354.958-802.597,1475.318-1219.604,1201.401
			c-928.356-609.804-855.543-3085.416-800.935-3886.351c54.609-800.935,465.066-2311.752,873.747-2075.147
			c345.858,200.233,427.772,1073.98,218.436,1856.711C1720.373,7007.832,109.403,9865.71,109.403,9865.71z"/>
		<g>
			
				<linearGradient id="SVGID_3_" gradientUnits="userSpaceOnUse" x1="4242.6792" y1="4984.2915" x2="4242.6792" y2="3278.4316" gradientTransform="matrix(-1 0 0 -1 8266.6484 11852.4893)">
				<stop  offset="0" style="stop-color:#A04444"/>
				<stop  offset="0.2233" style="stop-color:#AA4E4E"/>
				<stop  offset="0.48" style="stop-color:#AE5151"/>
				<stop  offset="1" style="stop-color:#A04444"/>
			</linearGradient>
			<path fill="url(#SVGID_3_)" d="M4562.168,6868.198c123.826,0,225.573,10.475,305.292,31.473
				c79.763,20.949,143.203,50.85,190.413,89.699c47.209,38.802,80.255,86.012,99.143,141.63
				c18.883,55.573,28.323,118.031,28.323,187.27v160.512c0,71.311-8.897,134.79-26.75,190.413
				c-17.803,55.568-48.783,102.782-92.846,141.633c-44.063,38.797-104.357,68.164-180.973,88.127
				c-76.572,19.909-173.595,29.9-291.128,29.9H3331.557v37.767c0,109.075,22.029,182.003,66.092,218.737
				c44.063,36.682,118.569,55.081,223.463,55.081h465.805v189.158v144.46h-465.805c-136.366,0-252.278-12.595-347.782-37.767
				c-95.455-25.18-173.595-63.487-234.475-114.879c-60.835-51.436-105.436-116.453-133.763-195.141
				c-28.326-78.678-42.491-172.609-42.491-281.686v-415.452c0-123.822,12.097-227.681,36.194-311.586
				c24.149-83.939,66.097-152.147,125.897-204.569c59.799-52.477,139.562-89.701,239.195-111.735
				c99.685-22.029,225.036-33.046,376.108-33.046H4562.168z M3331.557,7639.294h1211.724c54.591,0,97.571-12.097,129.043-36.192
				c31.473-24.141,47.209-69.781,47.209-136.915v-116.443c0-60.885-16.768-102.828-50.356-125.902
				c-33.539-23.109-80.749-34.61-141.633-34.61h-881.252c-54.539,0-101.752,4.177-141.633,12.585
				c-39.833,8.355-72.391,23.607-97.567,45.633c-25.179,22.032-44.063,52.973-56.653,92.846
				c-12.59,39.837-18.882,91.281-18.882,154.229V7639.294z"/>
			<linearGradient id="SVGID_4_" gradientUnits="userSpaceOnUse" x1="6621.5396" y1="9070.2773" x2="6621.5396" y2="6854.5459">
				<stop  offset="0" style="stop-color:#A04444"/>
				<stop  offset="0.2233" style="stop-color:#AA4E4E"/>
				<stop  offset="0.48" style="stop-color:#AE5151"/>
				<stop  offset="1" style="stop-color:#A04444"/>
			</linearGradient>
			<path fill="url(#SVGID_4_)" d="M6920.534,6854.545c159.437,0,291.618,13.133,396.57,39.344
				c104.898,26.26,188.839,68.208,251.785,125.893c62.947,57.733,107.503,133.763,133.767,228.181
				c26.204,94.42,39.34,209.834,39.34,346.214v229.752c0,136.416-13.136,251.297-39.34,344.632
				c-26.264,93.388-70.819,168.92-133.767,226.604c-62.946,57.737-146.887,99.69-251.785,125.893
				c-104.952,26.274-237.133,39.348-396.57,39.348h-950.497v509.872h-468.954V7594.177c0-136.38,13.083-251.794,39.343-346.214
				c26.212-94.418,70.817-170.448,133.763-228.181c62.946-57.685,146.842-99.632,251.786-125.893
				c104.894-26.211,237.083-39.344,396.565-39.344H6920.534z M7273.036,7606.763c0-75.54-5.796-136.37-17.314-182.545
				c-11.555-46.13-33.047-81.835-64.511-107.015c-31.481-25.172-73.967-41.952-127.47-50.361
				c-53.507-8.354-121.173-12.585-203.002-12.585h-522.462c-73.47,0-134.301,5.262-182.546,15.732
				c-48.29,10.523-86.061,28.868-113.303,55.09c-27.296,26.255-46.178,61.915-56.653,107.004
				c-10.523,45.144-15.737,102.295-15.737,171.534v557.077h893.848c81.83,0,148.958-3.644,201.429-11.022
				c52.423-7.322,94.416-23.598,125.897-48.777c31.464-25.182,52.956-60.832,64.511-107.014
				c11.519-46.13,17.314-108.046,17.314-185.693V7606.763z"/>
			<linearGradient id="SVGID_5_" gradientUnits="userSpaceOnUse" x1="8583.9043" y1="8560.4053" x2="8583.9043" y2="6373.001">
				<stop  offset="0" style="stop-color:#A04444"/>
				<stop  offset="0.2233" style="stop-color:#AA4E4E"/>
				<stop  offset="0.48" style="stop-color:#AE5151"/>
				<stop  offset="1" style="stop-color:#A04444"/>
			</linearGradient>
			<path fill="url(#SVGID_5_)" d="M8195.205,8560.405V7235.379h-239.199v-380.833h239.199V6373h478.397v481.545h538.2v380.833
				h-538.2v1325.026H8195.205z"/>
			<linearGradient id="SVGID_6_" gradientUnits="userSpaceOnUse" x1="10527.377" y1="8574.0576" x2="10527.377" y2="6868.1973">
				<stop  offset="0" style="stop-color:#A04444"/>
				<stop  offset="0.2233" style="stop-color:#AA4E4E"/>
				<stop  offset="0.48" style="stop-color:#AE5151"/>
				<stop  offset="1" style="stop-color:#A04444"/>
			</linearGradient>
			<path fill="url(#SVGID_6_)" d="M10240.969,8574.058c-157.366,0-288.529-13.075-393.42-39.348
				c-104.943-26.202-188.839-68.154-251.785-125.893c-62.954-57.685-107.557-133.217-133.758-226.604
				c-26.265-93.336-39.349-208.216-39.349-344.633v-229.75c0-136.381,13.084-251.795,39.349-346.214
				c26.201-94.419,70.804-170.449,133.758-228.183c62.946-57.684,146.842-99.632,251.785-125.892
				c104.891-26.211,236.054-39.344,393.42-39.344h569.662c159.438,0,291.623,13.132,396.574,39.344
				c104.889,26.26,188.84,68.75,251.785,127.466c62.946,58.768,107.494,135.336,133.769,229.755
				c26.201,94.42,39.339,209.842,39.339,346.214v226.604c0,136.417-13.138,251.297-39.339,344.633
				c-26.274,93.388-70.822,168.92-133.769,226.604c-62.945,57.738-146.896,99.69-251.785,125.893
				c-104.951,26.272-237.137,39.348-396.574,39.348H10240.969z M11163.137,7623.563c0-71.311-5.794-130.07-17.314-176.254
				c-11.555-46.13-32.548-82.322-62.945-108.578c-30.434-26.22-72.92-44.067-127.457-53.507
				c-54.592-9.439-123.831-14.167-207.734-14.167h-443.771c-83.941,0-152.647,4.728-206.154,14.167
				c-53.508,9.439-95.495,27.287-125.892,53.507c-30.434,26.256-51.445,62.448-62.947,108.578
				c-11.555,46.184-17.314,104.943-17.314,176.254v201.424c0,71.354,5.76,129.591,17.314,174.68
				c11.502,45.145,32.514,80.803,62.947,107.006c30.396,26.264,72.384,44.609,125.892,55.088
				c53.507,10.524,122.213,15.733,206.154,15.733h443.771c83.903,0,153.143-5.209,207.734-15.733
				c54.537-10.479,97.023-28.824,127.457-55.088c30.397-26.203,51.391-61.861,62.945-107.006
				c11.521-45.089,17.314-103.325,17.314-174.68V7623.563z"/>
			<linearGradient id="SVGID_7_" gradientUnits="userSpaceOnUse" x1="13083.0078" y1="8574.0576" x2="13083.0078" y2="6868.1973">
				<stop  offset="0" style="stop-color:#A04444"/>
				<stop  offset="0.2233" style="stop-color:#AA4E4E"/>
				<stop  offset="0.48" style="stop-color:#AE5151"/>
				<stop  offset="1" style="stop-color:#A04444"/>
			</linearGradient>
			<path fill="url(#SVGID_7_)" d="M13718.771,8574.058v-950.495c0-71.311-5.804-129.537-17.307-174.681
				c-11.561-45.09-31.48-80.749-59.799-107.005c-28.336-26.221-67.176-44.557-116.451-55.08
				c-49.329-10.48-111.734-15.74-187.274-15.74h-509.863c-73.47,0-134.853,5.26-184.129,15.74
				c-49.321,10.523-88.66,28.859-118.018,55.08c-29.411,26.256-49.862,61.915-61.382,107.005
				c-11.555,45.144-17.305,103.37-17.305,174.681v950.495h-468.952V7607.83c0-136.381,13.084-251.795,39.34-346.214
				c26.21-94.419,70.821-170.449,133.768-228.183c62.946-57.684,146.833-99.632,251.784-125.892
				c104.9-26.211,236.055-39.344,393.411-39.344h569.679c159.43,0,291.614,13.132,396.559,39.344
				c104.896,26.26,188.838,68.208,251.785,125.892c62.945,57.734,107.51,133.763,133.768,228.183
				c26.209,94.419,39.338,209.833,39.338,346.214v966.228H13718.771z"/>
		</g>
	</g>
	<rect x="2777.639" y="5578.171" display="none" fill="#AE5151" width="237.024" height="261.026"/>
	<rect x="2777.639" y="5258.201" display="none" fill="#F2F2F2" width="237.024" height="261.026"/>
	<rect x="2782.139" y="5901.141" display="none" fill="#51AEAA" width="228.022" height="255.026"/>
	<rect x="2782.139" y="6221.11" display="none" fill="#282828" width="228.022" height="255.026"/>
</g>
<g id="Layer_2" display="none">
</g>
</svg>
