<?xml version="1.0" standalone="no"?>
<!DOCTYPE svg PUBLIC "-//W3C//DTD SVG 20010904//EN"
 "http://www.w3.org/TR/2001/REC-SVG-20010904/DTD/svg10.dtd">
<svg version="1.0" xmlns="http://www.w3.org/2000/svg"
 width="984.000000pt" height="984.000000pt" viewBox="0 0 984.000000 984.000000"
 preserveAspectRatio="xMidYMid meet">
<metadata>
Created by potrace 1.14, written by Peter Selinger 2001-2017
</metadata>
<g transform="translate(0.000000,984.000000) scale(0.100000,-0.100000)"
fill="#000000" stroke="none">
<path d="M1129 7397 c-116 -41 -223 -112 -340 -229 -75 -76 -184 -216 -235
-303 -16 -27 -37 -63 -47 -80 -18 -32 -27 -50 -62 -130 -54 -120 -87 -209
-124 -328 -22 -71 -75 -287 -85 -347 -3 -19 -8 -46 -11 -60 -3 -14 -8 -45 -11
-70 -3 -25 -8 -54 -10 -65 -2 -11 -6 -47 -9 -82 -3 -34 -8 -72 -10 -85 -25
-128 -25 -789 0 -1058 3 -30 7 -75 10 -100 8 -91 16 -166 20 -196 2 -17 7 -57
10 -90 3 -32 8 -66 10 -74 2 -8 7 -37 10 -65 4 -27 8 -57 10 -65 2 -8 7 -35
10 -59 4 -25 18 -101 31 -170 14 -70 26 -133 28 -141 3 -14 -72 -165 -121
-242 -12 -21 -23 -40 -23 -42 0 -2 -17 -35 -38 -73 -22 -37 -52 -93 -69 -123
-17 -30 -40 -73 -53 -95 -19 -34 -21 -48 -16 -103 7 -69 21 -105 38 -100 6 2
71 109 144 238 73 129 137 240 143 247 6 7 11 16 11 20 0 4 9 21 19 37 l19 28
32 -103 c17 -57 38 -117 45 -134 7 -16 18 -46 25 -65 31 -84 113 -242 170
-329 231 -352 537 -437 816 -227 95 71 183 178 315 381 129 198 247 440 265
545 5 29 5 92 -1 98 -33 34 -152 -62 -241 -194 -15 -21 -30 -40 -35 -42 -5 -2
-9 -8 -9 -13 0 -14 -214 -336 -301 -452 -142 -190 -259 -255 -368 -204 -56 26
-183 150 -238 232 -42 63 -150 282 -157 319 -1 6 -15 49 -30 96 -22 69 -44
150 -70 265 -1 6 -8 43 -16 83 -15 84 -23 60 88 262 35 63 85 153 110 200 25
47 66 123 92 170 25 47 52 100 59 118 7 17 17 32 21 32 4 0 11 12 15 27 4 16
11 33 16 39 15 18 69 128 69 141 0 6 4 13 8 15 5 2 27 41 49 88 22 47 65 137
96 200 77 161 107 229 108 237 0 5 6 17 13 28 7 11 20 39 29 62 9 23 25 61 36
85 62 137 205 527 214 586 1 9 6 23 11 30 4 7 5 16 2 19 -3 3 -1 13 4 23 8 15
41 166 54 250 21 128 27 368 13 475 -24 190 -98 378 -201 510 -57 73 -128 144
-161 159 -46 22 -118 19 -196 -7z m-11 -564 c37 -23 112 -103 112 -119 0 -7 4
-14 10 -16 10 -3 64 -150 75 -203 27 -139 35 -223 34 -365 -1 -155 -8 -255
-28 -366 -6 -32 -13 -72 -15 -89 -17 -101 -85 -306 -142 -432 -13 -28 -24 -54
-24 -57 0 -3 -17 -41 -37 -83 -20 -43 -38 -80 -38 -83 -6 -25 -242 -499 -370
-745 -43 -82 -96 -185 -118 -227 -22 -43 -41 -77 -43 -75 -6 7 -16 115 -31
327 -15 236 -8 989 12 1150 2 19 7 60 10 90 5 46 14 97 40 245 2 11 6 37 9 59
4 21 8 41 11 45 2 4 7 23 10 41 19 108 113 424 156 525 7 17 13 32 14 35 5 21
80 169 108 212 83 129 172 177 245 131z"/>
<path d="M5762 5432 l-113 -3 3 -164 c2 -91 1 -166 -2 -166 -3 -1 -39 -3 -80
-4 -41 -1 -77 -3 -80 -4 -3 0 -5 -59 -5 -131 l0 -130 35 -1 c19 0 56 0 83 1
l47 1 1 -408 c0 -224 0 -434 -1 -466 l-1 -57 168 2 168 3 2 455 c0 250 1 458
2 461 1 4 82 7 182 7 99 0 183 3 186 6 9 8 10 228 2 246 -6 13 -36 15 -187 15
-174 -1 -181 0 -184 20 -2 11 -3 86 -2 168 0 100 -3 147 -10 148 -60 3 -119 4
-214 1z"/>
<path d="M4200 5088 c-104 -12 -122 -15 -183 -37 -96 -34 -140 -70 -187 -153
-56 -102 -61 -158 -61 -758 0 -294 0 -549 1 -565 l0 -31 163 1 162 0 0 178 0
177 85 0 c616 -1 750 3 839 26 101 25 136 41 187 86 101 89 127 190 128 493 0
227 -15 319 -67 407 -56 97 -144 142 -332 174 -48 9 -664 10 -735 2z m670
-283 c78 -23 111 -54 127 -118 3 -12 6 -92 8 -178 3 -221 -13 -269 -98 -308
-35 -16 -76 -18 -424 -17 l-387 1 0 214 c-1 226 10 319 41 353 26 29 70 49
122 57 62 9 580 6 611 -4z"/>
<path d="M2357 5084 c-1 -1 -29 -4 -62 -8 -74 -8 -175 -35 -196 -53 -8 -7 -20
-13 -26 -13 -5 0 -29 -20 -52 -45 -48 -51 -78 -125 -89 -219 -12 -94 -6 -504
7 -559 32 -133 112 -218 246 -260 84 -27 112 -29 358 -34 l238 -5 -3 118 -3
118 -200 2 c-128 1 -211 6 -230 13 -62 25 -83 59 -91 149 -5 51 -5 52 23 53
15 0 244 2 508 4 264 1 491 5 505 8 61 13 76 18 116 36 55 26 92 64 117 120
18 39 21 69 23 189 2 146 -8 204 -49 262 -37 53 -136 102 -237 116 -43 6 -896
13 -903 8z m809 -239 c43 -18 55 -49 56 -147 1 -83 -12 -117 -54 -140 -17 -9
-135 -12 -470 -12 l-447 -1 1 80 c2 141 32 200 116 225 15 4 193 8 395 9 298
0 375 -2 403 -14z"/>
<path d="M6909 5074 c-46 -7 -91 -14 -99 -16 -166 -46 -239 -118 -280 -279
-24 -91 -26 -461 -4 -564 34 -160 109 -244 263 -291 81 -25 149 -29 496 -29
404 0 460 6 573 63 112 55 168 150 189 322 8 67 8 358 0 420 -32 242 -136 341
-397 376 -90 12 -649 10 -741 -2z m646 -279 c33 -4 66 -12 73 -17 6 -6 12 -7
12 -2 0 4 14 -7 31 -24 44 -45 56 -107 53 -282 -2 -202 -13 -233 -91 -271 -47
-24 -53 -24 -353 -24 -279 0 -308 2 -346 19 -78 37 -97 94 -96 291 1 153 8
206 35 247 23 34 72 57 139 64 29 3 54 7 55 7 5 6 438 -2 488 -8z"/>
<path d="M8767 5084 c-1 -1 -29 -5 -62 -9 -226 -25 -344 -112 -387 -285 -17
-70 -22 -171 -22 -530 l-1 -365 165 0 164 0 1 385 c2 422 4 436 62 478 57 40
102 45 383 45 304 -1 359 -9 397 -62 41 -54 45 -97 45 -483 l0 -368 164 0 165
0 -1 398 c-2 387 -3 410 -34 547 -5 24 -47 92 -73 120 -61 65 -155 103 -298
121 -42 6 -662 13 -668 8z"/>
</g>
</svg>
