<?xml version="1.0" standalone="no"?>
<!DOCTYPE svg PUBLIC "-//W3C//DTD SVG 20010904//EN"
 "http://www.w3.org/TR/2001/REC-SVG-20010904/DTD/svg10.dtd">
<svg version="1.0" xmlns="http://www.w3.org/2000/svg"
 width="642.000000pt" height="642.000000pt" viewBox="0 0 642.000000 642.000000"
 preserveAspectRatio="xMidYMid meet">
<metadata>
Created by potrace 1.14, written by Peter Selinger 2001-2017
</metadata>
<g transform="translate(0.000000,642.000000) scale(0.100000,-0.100000)"
fill="#000000" stroke="none">
<path d="M463 3998 c1 -1333 6 -2439 10 -2458 3 -19 9 -57 12 -85 16 -132 77
-378 114 -460 99 -221 161 -316 286 -441 84 -84 215 -180 295 -216 141 -64
172 -75 207 -79 5 -1 16 -5 25 -10 14 -8 44 -15 178 -44 9 -2 43 -6 75 -10 33
-4 69 -10 80 -13 11 -3 316 -7 678 -9 l657 -4 0 355 0 356 -268 0 -267 0 0
270 c0 176 -3 270 -10 271 -5 0 -122 1 -260 3 -229 2 -255 5 -306 24 -129 51
-222 180 -253 352 -2 14 -5 1059 -5 2323 l-1 2297 -625 0 -626 0 4 -2422z"/>
<path d="M2760 1422 c-6 -2 -10 -75 -10 -191 l0 -186 238 0 c130 1 243 -1 250
-3 9 -3 12 -100 12 -438 l0 -434 1105 0 1105 0 0 438 0 438 103 -1 102 -1 1
-332 2 -332 -42 0 -41 0 1 -177 c1 -98 2 -183 3 -189 1 -8 46 -11 145 -11
l143 1 -1 185 -1 186 -40 5 -40 5 0 327 c0 211 3 329 10 331 5 2 43 3 83 2
l72 -1 0 188 c0 103 -3 188 -7 189 -25 3 -3185 3 -3193 1z"/>
</g>
</svg>
