<svg data-name="Layer 1" xmlns="http://www.w3.org/2000/svg" width="692" height="499.9"><path d="M691 496H1a1 1 0 010-2h690a1 1 0 010 2z" fill="#ccc"/><path d="M623 322H217a7 7 0 100 13h11v155a7 7 0 0013 0V335h356v155a7 7 0 0013 0V338l2-3h11a7 7 0 100-13z" fill="#ccc"/><path d="M442 325H319a9 9 0 01-9-9v-68a9 9 0 019-9h123a9 9 0 019 9v68a9 9 0 01-9 9z" fill="#3f3d56"/><path d="M442 246H319a2 2 0 00-2 2v68a2 2 0 002 2h123a2 2 0 002-2v-68a2 2 0 00-2-2z" fill="#fff"/><path d="M391 294s-15-3-23 3 10 20 10 20z" fill="#2f2e41"/><circle cx="381" cy="273.9" r="13.9" fill="#a0616a"/><path d="M370 254a10 10 0 019-4 19 19 0 016 1l9 4c2 1 5 2 6 4s0 5-1 7l-3 10a32 32 0 00-2-7 11 11 0 00-5-5l-7-1c-4 0-8 1-11 3a11 11 0 00-3 6 33 33 0 000 6 51 51 0 01-4-8 21 21 0 01-1-7 9 9 0 012-7 6 6 0 016-2z" fill="#2f2e41"/><path d="M414 306a2 2 0 00-2-2l-21-11a3 3 0 00-3 1l-6 9-8-9h-1a3 3 0 00-3 0l-17 12a4 4 0 00-3 3l-1 9h68z" fill="#4bb3fd"/><path d="M452 317h-13a1 1 0 00-1-2h-4a1 1 0 00-2 2h-4a1 1 0 00-1-2h-5a1 1 0 00-1 2h-4a1 1 0 00-1-2h-5a1 1 0 00-1 2h-4a1 1 0 00-2-2h-4a1 1 0 00-1 2h-4a1 1 0 00-2-2h-4a1 1 0 00-1 2h-4a1 1 0 00-2-2h-4a1 1 0 00-1 2h-4a1 1 0 00-2-2h-4a1 1 0 00-1 2h-4a1 1 0 00-2-2h-4a1 1 0 00-1 2h-4a1 1 0 00-2-2h-4a1 1 0 00-1 2h-4a1 1 0 00-2-2h-4a1 1 0 00-1 2h-5a1 1 0 00-1-2h-4a1 1 0 00-1 2h-14a4 4 0 000 8h144a4 4 0 000-8z" fill="#3f3d56"/><path d="M287 293v27h-69a14 14 0 110-27z" fill="#f2f2f2"/><path d="M289 320a1 1 0 01-1 1h-71a15 15 0 110-29h71a1 1 0 010 2h-71a12 12 0 000 25h71a1 1 0 011 1z" fill="#4bb3fd"/><path d="M287 299h-74 74zM287 304h-74 74zM287 309h-74 74zM287 314h-74 74z" fill="#ccc"/><path d="M274 264v27h-69a14 14 0 110-27z" fill="#f2f2f2"/><path d="M276 291a1 1 0 01-1 1h-71a15 15 0 110-29h71a1 1 0 010 2h-71a12 12 0 000 25h71a1 1 0 011 1z" fill="#3f3d56"/><path d="M274 270h-74 74zM274 275h-74 74zM274 280h-74 74zM274 285h-74 74zM354 418v-24a4 4 0 00-4-4h-91a4 4 0 00-4 4v24zM255 427h99v31h-99zM255 467v24a4 4 0 004 4h91a4 4 0 004-4v-24z" fill="#ccc"/><circle cx="304.3" cy="405" r="3" fill="#fff"/><circle cx="304.3" cy="445" r="3" fill="#fff"/><circle cx="304.5" cy="484.2" r="3" fill="#fff"/><path d="M343 363v27h-69a14 14 0 110-27z" fill="#f2f2f2"/><path d="M345 390a1 1 0 01-1 1h-71a15 15 0 110-29h71a1 1 0 010 2h-71a12 12 0 000 25h71a1 1 0 011 1z" fill="#3f3d56"/><path d="M343 369h-74 74zM343 374h-74 74zM343 379h-74 74zM343 384h-74 74z" fill="#ccc"/><path d="M250 183V8a8 8 0 018-8h138a8 8 0 018 8v175a8 8 0 01-8 8H258a8 8 0 01-8-8zm8-181a6 6 0 00-6 6v175a6 6 0 006 6h138a6 6 0 006-6V8a6 6 0 00-6-6z" fill="#e6e6e6"/><path d="M335 81V45a4 4 0 014-4h30a4 4 0 014 4v36a4 4 0 01-4 3h-30a4 4 0 01-4-3z" fill="#4bb3fd"/><path d="M275 97V61a4 4 0 014-3h31a4 4 0 013 3v36a4 4 0 01-3 4h-31a4 4 0 01-4-4z" fill="#ccc"/><path d="M323 148v-36a4 4 0 014-4h30a4 4 0 014 4v36a4 4 0 01-4 4h-30a4 4 0 01-4-4z" fill="#ff6584"/><path d="M506 313h-32a2 2 0 00-1 0l-8 4a1 1 0 000 3l8 4a2 2 0 001 0h32a2 2 0 001-1v-8a2 2 0 00-1-2z" fill="#3f3d56"/><path d="M507 315v8a2 2 0 01-1 1h-7v-11h7a2 2 0 011 2z" fill="#4bb3fd"/><path d="M505 254a11 11 0 0115 7 11 11 0 011 1l43 22 11-7 12 15-15 12a11 11 0 01-14 1l-44-31a11 11 0 01-1 0 11 11 0 01-14-8 11 11 0 010-2 11 11 0 016-10z" fill="#ffb8b8"/><path d="M597 388h-48l-50 2a13 13 0 00-2 2 12 12 0 00-3 8v2a13 13 0 0013 13h90a13 13 0 0012-13v-2a13 13 0 00-12-12z" fill="#3f3d56"/><path fill="#3f3d56" d="M558 498h-13v-84h13z"/><path d="M508 498h88c0-1-20-13-44-13s-44 11-44 13z" fill="#3f3d56"/><path fill="#ffb8b8" d="M519 488h-12l-6-32h18v32z"/><path d="M522 500h-39v-1a15 15 0 0115-15h24zM501 468l-24-55a20 20 0 018-25l53-29 25-2 22-2c0 1 5 9 2 18-3 7-9 12-19 16-24 9-51 16-62 19a3 3 0 00-2 2 3 3 0 000 3l22 51a4 4 0 01-3 6l-17 1h-1a4 4 0 01-4-3z" fill="#2f2e41"/><path fill="#ffb8b8" d="M525 488h-12l-6-32h18v32z"/><path d="M528 500h-39v-1a15 15 0 0115-15h24zM508 471l-24-55a20 20 0 018-25l53-29 25-2 22-2c0 1 5 9 2 18-3 7-9 12-19 16-24 9-51 16-62 19a3 3 0 00-2 2 3 3 0 000 3l22 51a4 4 0 01-3 6l-17 1h-1a4 4 0 01-4-3z" fill="#2f2e41"/><path d="M496 304a168 168 0 01-24-45 4 4 0 012-5l35-19a4 4 0 014 0 4 4 0 012 3 102 102 0 0023 42 4 4 0 011 3 4 4 0 01-3 3l-35 19a4 4 0 01-5-1z" fill="#ccc"/><path d="M498 302a1 1 0 002 0l35-18a1 1 0 001-1 1 1 0 00-1-1 105 105 0 01-23-44 1 1 0 00-1 0 1 1 0 00-1 0l-35 18a1 1 0 000 2 165 165 0 0023 44z" fill="#fff"/><path d="M613 299l-28 10-7-18a11 11 0 015-14 11 11 0 0115 3z" fill="#4bb3fd"/><path d="M543 373a5 5 0 01-3-4c-3-33-1-58 8-79a25 25 0 0117-14l22-1a26 26 0 0114 28c-7 19-13 38-8 54a5 5 0 01-1 4 5 5 0 01-3 2l-42 11a5 5 0 01-4-1z" fill="#4bb3fd"/><circle cx="579.4" cy="242.3" r="24.6" fill="#ffb8b8"/><path d="M511 262l-19 8a3 3 0 01-4-1v-1a3 3 0 011-4l19-9a3 3 0 014 2l1 1a3 3 0 01-2 4zM518 275l-19 8a3 3 0 01-4-1v-1a3 3 0 011-4l19-9a3 3 0 014 2l1 1a3 3 0 01-2 4z" fill="#ccc"/><path d="M533 326l-43-34a11 11 0 01-1 0 11 11 0 01-9-1 11 11 0 01-4-8 11 11 0 017-12 11 11 0 0114 8 11 11 0 011 1l42 25 11-6 11 15-16 12a11 11 0 01-13 0z" fill="#ffb8b8"/><path d="M568 319l-25-17 12-16a11 11 0 0114-3 11 11 0 016 13z" fill="#4bb3fd"/><path d="M570 239c-6 4-14 8-21 4-4-3-5-9-4-14 4-9 12-12 20-15 11-4 22-7 33-5s21 14 19 25c-2 9-10 16-9 25s11 14 20 15 19 3 26 9c8 8 6 23-2 31s-19 13-31 16c-15 3-31 5-45-1s-25-21-21-36c2-6 6-12 10-17s8-10 9-17c1-5 0-11-3-15a4 4 0 01-1-5z" fill="#2f2e41"/><path d="M109 358a39 39 0 01-38-7c-13-11-17-29-20-46l-10-50 21 14c15 11 30 21 40 36s15 36 7 52" fill="#e6e6e6"/><path d="M107 419c2-16 5-31 3-47-1-14-5-27-14-38a64 64 0 00-16-15c-2-1-4 1-2 2a61 61 0 0124 29c5 14 6 28 5 42 0 9-1 17-3 26a2 2 0 001 2 2 2 0 002-1z" fill="#f2f2f2"/><path d="M87 391a29 29 0 01-25 13c-13 0-23-9-33-18L1 362l19-1c13-1 27-2 39 3s25 14 27 27" fill="#e6e6e6"/><path d="M113 427c-10-18-22-38-43-44a48 48 0 00-18-2c-2 0-1 3 1 3a45 45 0 0128 8c9 5 15 13 20 21l10 16c0 1 3 0 2-2z" fill="#f2f2f2"/><path d="M130 446a22 22 0 00-14-18v-10H99v10a22 22 0 00-13 18l-4 48h52z" fill="#f2f2f2"/></svg>