<?xml version="1.0" encoding="utf-8"?>
<!-- Generator: Adobe Illustrator 16.0.0, SVG Export Plug-In . SVG Version: 6.00 Build 0)  -->
<!DOCTYPE svg PUBLIC "-//W3C//DTD SVG 1.1//EN" "http://www.w3.org/Graphics/SVG/1.1/DTD/svg11.dtd">
<svg version="1.1" xmlns="http://www.w3.org/2000/svg" xmlns:xlink="http://www.w3.org/1999/xlink" x="0px" y="0px" width="49.2423px" height="25px" viewBox="0 0 492.423 250" enable-background="new 0 0 492.423 250" xml:space="preserve">
	<g id="Layer_1"></g>
	<g id="Layer_2">
		<g>
			<linearGradient id="SVGID_1_" gradientUnits="userSpaceOnUse" x1="51.3628" y1="250" x2="51.3628" y2="4.882813e-004">
				<stop offset="0" style="stop-color:#439E97" />
				<stop offset="0.0567" style="stop-color:#46A29C" />
				<stop offset="0.2565" style="stop-color:#4EABA6" />
				<stop offset="0.48" style="stop-color:#51AEAA" />
				<stop offset="1" style="stop-color:#439E97" />
			</linearGradient>
			<path fill="url(#SVGID_1_)" d="M0,221.604c0,0,0.1,12.979,3.502,6.686c12.734-23.558,49.662-83.089,70.037-134.661
			c22.135-56.029,7.64-79.587-5.73-92.002c-9.8-9.1-67.171,17.828-58.894,135.935c8.34,119.003,50.617,126.701,71.946,99.324
			c21.33-27.378,28.333-53.482,15.281-41.067c-13.052,12.416-28.073,51.603-42.659,42.022
			c-32.471-21.329-29.924-107.92-28.015-135.935c1.91-28.015,16.267-80.859,30.562-72.583c12.097,7.004,14.962,37.565,7.641,64.943
			C56.348,121.644,0,221.604,0,221.604z" />
			<g>

				<linearGradient id="SVGID_2_" gradientUnits="userSpaceOnUse" x1="-5776.8511" y1="-2413.271" x2="-5776.8511" y2="-2472.9365" gradientTransform="matrix(-1 0 0 -1 -5639.9287 -2296.5107)">
					<stop offset="0" style="stop-color:#A04444" />
					<stop offset="0.2233" style="stop-color:#AA4E4E" />
					<stop offset="0.48" style="stop-color:#AE5151" />
					<stop offset="1" style="stop-color:#A04444" />
				</linearGradient>
				<path fill="url(#SVGID_2_)" d="M155.747,116.76c4.331,0,7.89,0.366,10.678,1.101c2.79,0.733,5.009,1.779,6.66,3.138
				c1.652,1.357,2.808,3.008,3.468,4.954c0.661,1.943,0.991,4.127,0.991,6.55v5.614c0,2.494-0.311,4.715-0.936,6.66
				c-0.623,1.944-1.706,3.595-3.247,4.954c-1.542,1.357-3.65,2.384-6.33,3.082c-2.679,0.697-6.072,1.046-10.183,1.046h-44.145v1.321
				c0,3.815,0.771,6.366,2.312,7.651c1.542,1.283,4.147,1.926,7.816,1.926h16.292v6.616v5.053h-16.292
				c-4.77,0-8.824-0.439-12.165-1.32c-3.339-0.881-6.072-2.221-8.201-4.019c-2.128-1.8-3.688-4.073-4.679-6.825
				c-0.991-2.752-1.486-6.038-1.486-9.853v-14.531c0-4.332,0.423-7.965,1.266-10.898c0.845-2.937,2.313-5.322,4.404-7.156
				c2.092-1.835,4.881-3.138,8.367-3.908c3.487-0.771,7.871-1.156,13.155-1.156H155.747z M112.703,143.731h42.383
				c1.91,0,3.413-0.424,4.514-1.267c1.101-0.845,1.651-2.44,1.651-4.788v-4.074c0-2.129-0.586-3.597-1.761-4.403
				c-1.173-0.809-2.824-1.211-4.954-1.211h-30.824c-1.908,0-3.559,0.146-4.954,0.44c-1.393,0.292-2.532,0.825-3.413,1.596
				c-0.881,0.771-1.541,1.853-1.981,3.248c-0.44,1.393-0.661,3.192-0.661,5.395V143.731z" />
				<linearGradient id="SVGID_3_" gradientUnits="userSpaceOnUse" x1="227.7783" y1="193.7822" x2="227.7783" y2="116.2827">
					<stop offset="0" style="stop-color:#A04444" />
					<stop offset="0.2233" style="stop-color:#AA4E4E" />
					<stop offset="0.48" style="stop-color:#AE5151" />
					<stop offset="1" style="stop-color:#A04444" />
				</linearGradient>
				<path fill="url(#SVGID_3_)" d="M238.236,116.282c5.577,0,10.201,0.459,13.871,1.376c3.669,0.918,6.605,2.386,8.807,4.403
				c2.202,2.02,3.761,4.679,4.679,7.981c0.917,3.303,1.376,7.34,1.376,12.109v8.036c0,4.771-0.459,8.79-1.376,12.055
				c-0.918,3.266-2.477,5.909-4.679,7.926c-2.201,2.02-5.138,3.486-8.807,4.403c-3.67,0.919-8.294,1.376-13.871,1.376H204.99v17.834
				h-16.403v-51.63c0-4.77,0.458-8.807,1.376-12.109c0.917-3.303,2.477-5.962,4.679-7.981c2.202-2.018,5.136-3.485,8.807-4.403
				c3.669-0.917,8.292-1.376,13.871-1.376H238.236z M250.566,142.593c0-2.643-0.203-4.77-0.605-6.385
				c-0.404-1.613-1.156-2.862-2.257-3.743s-2.587-1.468-4.458-1.761s-4.238-0.441-7.101-0.441h-18.274
				c-2.57,0-4.698,0.184-6.385,0.551c-1.689,0.368-3.01,1.01-3.963,1.926c-0.955,0.919-1.615,2.166-1.982,3.744
				c-0.368,1.578-0.55,3.577-0.55,5.999v19.485h31.265c2.861,0,5.21-0.127,7.045-0.386c1.834-0.256,3.303-0.825,4.403-1.706
				s1.853-2.127,2.257-3.742c0.402-1.613,0.605-3.779,0.605-6.496V142.593z" />
				<linearGradient id="SVGID_4_" gradientUnits="userSpaceOnUse" x1="296.4165" y1="175.9482" x2="296.4165" y2="99.4395">
					<stop offset="0" style="stop-color:#A04444" />
					<stop offset="0.2233" style="stop-color:#AA4E4E" />
					<stop offset="0.48" style="stop-color:#AE5151" />
					<stop offset="1" style="stop-color:#A04444" />
				</linearGradient>
				<path fill="url(#SVGID_4_)" d="M282.821,175.948v-46.347h-8.366v-13.319h8.366V99.439h16.733v16.843h18.824v13.319h-18.824
				v46.347H282.821z" />
				<linearGradient id="SVGID_5_" gradientUnits="userSpaceOnUse" x1="364.395" y1="176.4258" x2="364.395" y2="116.7603">
					<stop offset="0" style="stop-color:#A04444" />
					<stop offset="0.2233" style="stop-color:#AA4E4E" />
					<stop offset="0.48" style="stop-color:#AE5151" />
					<stop offset="1" style="stop-color:#A04444" />
				</linearGradient>
				<path fill="url(#SVGID_5_)" d="M354.376,176.426c-5.504,0-10.092-0.457-13.761-1.375c-3.671-0.918-6.605-2.385-8.807-4.404
				c-2.202-2.018-3.763-4.659-4.679-7.927c-0.919-3.264-1.376-7.282-1.376-12.054v-8.036c0-4.77,0.457-8.807,1.376-12.109
				c0.916-3.303,2.477-5.962,4.679-7.981c2.201-2.018,5.136-3.485,8.807-4.403c3.669-0.917,8.257-1.376,13.761-1.376h19.926
				c5.576,0,10.199,0.459,13.87,1.376c3.669,0.918,6.606,2.405,8.807,4.458c2.202,2.056,3.761,4.734,4.68,8.036
				c0.916,3.303,1.376,7.34,1.376,12.109v7.927c0,4.771-0.46,8.79-1.376,12.054c-0.919,3.268-2.478,5.909-4.68,7.927
				c-2.2,2.02-5.138,3.486-8.807,4.404c-3.671,0.918-8.294,1.375-13.87,1.375H354.376z M386.631,143.181
				c0-2.495-0.203-4.551-0.604-6.165c-0.404-1.614-1.14-2.88-2.202-3.798c-1.065-0.917-2.552-1.542-4.459-1.872
				c-1.909-0.33-4.331-0.495-7.266-0.495h-15.522c-2.936,0-5.339,0.165-7.211,0.495c-1.871,0.33-3.34,0.955-4.402,1.872
				c-1.065,0.918-1.8,2.184-2.202,3.798c-0.404,1.614-0.605,3.67-0.605,6.165v7.045c0,2.496,0.201,4.532,0.605,6.109
				c0.402,1.58,1.137,2.826,2.202,3.743c1.063,0.919,2.531,1.561,4.402,1.927c1.872,0.368,4.275,0.551,7.211,0.551H372.1
				c2.935,0,5.356-0.183,7.266-0.551c1.907-0.366,3.394-1.008,4.459-1.927c1.063-0.917,1.798-2.163,2.202-3.743
				c0.401-1.577,0.604-3.613,0.604-6.109V143.181z" />
				<linearGradient id="SVGID_6_" gradientUnits="userSpaceOnUse" x1="453.7837" y1="176.4258" x2="453.7837" y2="116.7603">
					<stop offset="0" style="stop-color:#A04444" />
					<stop offset="0.2233" style="stop-color:#AA4E4E" />
					<stop offset="0.48" style="stop-color:#AE5151" />
					<stop offset="1" style="stop-color:#A04444" />
				</linearGradient>
				<path fill="url(#SVGID_6_)" d="M476.02,176.426v-33.245c0-2.495-0.202-4.531-0.604-6.11c-0.404-1.577-1.102-2.824-2.092-3.743
				c-0.99-0.916-2.35-1.559-4.073-1.926c-1.726-0.367-3.908-0.551-6.55-0.551h-17.834c-2.57,0-4.716,0.184-6.439,0.551
				c-1.726,0.367-3.102,1.01-4.129,1.926c-1.028,0.919-1.744,2.166-2.146,3.743c-0.404,1.579-0.605,3.615-0.605,6.11v33.245h-16.403
				V142.63c0-4.77,0.458-8.807,1.376-12.109s2.478-5.962,4.68-7.981c2.2-2.018,5.136-3.485,8.807-4.403
				c3.668-0.917,8.256-1.376,13.761-1.376h19.925c5.576,0,10.201,0.459,13.871,1.376c3.669,0.918,6.605,2.386,8.807,4.403
				c2.202,2.02,3.76,4.679,4.679,7.981c0.917,3.303,1.376,7.34,1.376,12.109v33.796H476.02z" />
			</g>
		</g>
	</g>
</svg>