<svg data-name="Layer 1" xmlns="http://www.w3.org/2000/svg" width="982.9" height="803"><path d="M959 466v1l-2 32v3l-1 4a316 316 0 01-11 53 285 285 0 01-30 66l-13 18-7 10-6 6-1 1a297 297 0 01-31 30 487 487 0 01-60 42c-27 16-55 31-84 42a377 377 0 01-235 20 903 903 0 01-113-27l-6-2-10-3-56-21a743 743 0 01-134-72l-15-11-22-16-4-3a448 448 0 01-52-48c-22-24-40-50-52-80l-5-15H8l-2-8-2-11-1-2a189 189 0 01-3-39 180 180 0 014-34 153 153 0 0111-34 121 121 0 0118-26 102 102 0 0116-16c11-8 23-13 35-18a286 286 0 0131-9l12-3 24-7a269 269 0 0083-42 162 162 0 0031-34c7-13 12-27 11-42a63 63 0 000-7l-4-26c-4-35-2-66 24-96C329 5 380-2 426 1c135 8 257 85 364 176l28 24 7 6c17 16 34 32 49 49l4 4 2 2 14 17a320 320 0 0133 49 278 278 0 0128 87 309 309 0 014 33v18z" fill="#f50057" opacity=".1"/><path fill="#3f3d56" d="M394 449l-16 285h16l13-289-13 4z"/><path fill="#f50057" d="M137 593h198v43H137z"/><path d="M348 631v27H143l-21-16v-11z" fill="#3f3d56"/><path d="M389 570l-2 7c-3 8-5 15-6 23 0 10 2 21-5 29l-6 5a9 9 0 000 1c-2 3-2 5-2 8a140 140 0 001 18c3 19 7 39 1 58a90 90 0 01-4 9c-3 7-6 13-7 21v16l-10-3-56-21v-1c1-9-1-18-3-27l-17-55a139 139 0 01-3-22 76 76 0 010-11c0-5 0-10-3-13l-7-2-11-9a14 14 0 00-12-4c-23 5-39 24-60 34l-2 1a36 36 0 00-8 4 9 9 0 00-4 5l1 6a33 33 0 01-1 11 32 32 0 01-1 4l-3 7-16-11-21-16-4-3a448 448 0 01-52-48l7-18 2-10a38 38 0 015-10 134 134 0 0131-31c13-9 27-16 38-26a60 60 0 0012-14v-1a21 21 0 002-6l1-13a146 146 0 0041 1l48-8a108 108 0 0119-1l12 1 48 1 15 2a34 34 0 0116 14 61 61 0 017 15v1a61 61 0 012 8l4 16v1l8 17a62 62 0 015 13 63 63 0 010 27z" fill="#35323e"/><path d="M245 212c-4-4-10-1-15 1a98 98 0 01-13 5 5 5 0 01-3 0l-4-4c-3-3-7-2-10-1s-7 3-10 3c-4 0-7-3-11-3-7 0-13 8-19 6-4-2-7-7-11-5-3 1-3 5-5 8s-6 4-10 5c-11 5-19 17-17 29 1 7 4 13 6 19 6 18 4 39 12 57l2-3a23 23 0 00-1 17l3 8a72 72 0 013 9l9 39c3 15 6 30 7 45a132 132 0 01-2 30c15-3 30-10 46-10l17 2a360 360 0 0051 4 20 20 0 008-1l6-4c4-3 9-3 14-3 21-1 42 7 63 10 9-18 9-39 3-57-2-6-5-11-5-17a84 84 0 01-1-10 77 77 0 00-5-27l-2-10 3-10c4-7 7-13 12-19l18-14 15-10c-2-13-4-27-10-39s-14-24-26-31a84 84 0 00-12-6c-5-3-12-5-18-5-7-1-14 1-21 3-23 3-49 3-67-11z" fill="#f50057"/><path d="M414 443l-7 9-14 18-16 20-5 6H9l-3-8-2-11-1-2 49-32h74l32-1h30l159-1h56l7-2z" fill="#3f3d56"/><path d="M411 438l-1 1-5 6-12 14-23 28-209-6-157-4-1-2a189 189 0 01-3-39l18-9 4-2 31-16 27-14 71 9 16 2 7 1 11 2 164 21 18 2 11 2 33 4z" fill="#504f60"/><path d="M377 486v4l-1 22-6 122-1 27-3 67-1 39-7-2-9-3 15-266v-6l6-2zM15 486v10l-1 15-5-14-1-1-2-8z" fill="#3f3d56"/><ellipse cx="276.5" cy="272.5" rx="46" ry="62" fill="#a1616a"/><ellipse cx="276.5" cy="272.5" rx="46" ry="62" opacity=".1"/><circle cx="283" cy="235" r="64" fill="#a1616a"/><path d="M284 136a82 82 0 00-11 2 94 94 0 00-38 22c-4 6-2 14-5 21l-5 11c-6 9-8 19-11 29-1 2-1 5 1 6a6 6 0 004-1c7-2 17-3 22 2s5 13 11 17c7 4 19-1 25 4 3 2 4 6 6 8 6 6 16 6 25 5 5-1 11-1 14 2l3 6c3 2 9 1 12-2l6-9c5-6 14-10 18-16 5-5 6-11 7-17l4-22c2-9 3-19-2-27l-6-9-3-6a25 25 0 00-5-5l-10-8a83 83 0 00-10-8c-15-8-36-6-52-5z" fill="#464353"/><path d="M73 301l-7 8a86 86 0 01-7 5l-11 10a64 64 0 00-11 10c-5 7-8 16-13 24L9 376a28 28 0 00-4 9 42 42 0 00-1 10l1 15c1 5 3 11 8 14 3 3 8 5 13 6h7a12 12 0 005-4l12-14c8-9 16-19 28-24l10-5c15-7 26-22 30-38l2-12 2-11a3 3 0 000-1 4 4 0 00-1-2 212 212 0 01-24-22c-2-2-3-5-6-6-2-2-2-2-5 0a64 64 0 00-13 10z" fill="#a1616a"/><path d="M157 374a2 2 0 10-4 2h-1l30 61 6-2-30-61z" fill="#3f3d56"/><path d="M418 414c0 6 0 13-3 19-1 2-3 5-5 5a13 13 0 01-5 1 177 177 0 00-59 4c5-10 2-22 4-33l1-10c1-11-4-21-6-32a73 73 0 010-29 19 19 0 013-7 16 16 0 015-4c8-5 18-6 27-5 6 0 19 0 24 4s7 18 9 24a206 206 0 014 30l1 33z" fill="#a1616a"/><path fill="#fff" d="M60 436l36 24 162-6-107-18H60z"/><path d="M107 245l-16 17-25 21a19 19 0 0113 13l1 4c1 4 3 7 5 9 11 12 25 20 31 34a3 3 0 001 2 3 3 0 001 0c6 0 10-5 13-9 8-9 14-19 17-30s5-23 1-34l-8-15-8-13c-1-2-3-7-6-8-5-3-16 6-20 9zM402 310l9 20a62 62 0 00-56 8c-5 3-10 8-12 13a6 6 0 01-6-2 12 12 0 01-2-6c-1-8 2-16 5-23l5-9c2-3 6-5 9-6a194 194 0 0132-14c4-2 9-2 12 2 3 6 2 12 4 17z" fill="#f50057"/><path d="M60 370l6 5a44 44 0 008 4l10 5a55 55 0 009 4l13 2 16 6c6 2 11 2 15-1 3-3 5-6 9-6 2-1 4 0 6 1l26 14c3 2 7 4 9 7s0 9-4 10a35 35 0 01-4 0l-3 2a5 5 0 001 3v8c-1 3-5 4-7 3 0 4-4 7-8 8-9 2-19 1-29-1l-11-3-5-3c-4-2-10-1-15-1a345 345 0 01-81-13c-7-4-10-13-9-22s6-16 10-23l5-9a12 12 0 013-4c8-6 23-1 30 4z" fill="#a1616a"/><path d="M365 387c-5 3-11 3-16 5l-15 8c-13 7-28 10-43 13-9 1-18 3-27 2-12 0-24-4-36-7s-24-5-36-2a41 41 0 00-26 25c-3 8-3 15-3 23 3 2 6-1 8-3s2-7 4-8c5 1 6 7 10 10 2 2 5 3 8 3l15 2c4 1 8 1 11-1l3-5c2-2 6-3 10-3 11 2 22 9 33 7 4 0 7-2 11-3 22-8 46-3 68-8a153 153 0 0038-14 27 27 0 0011-24 27 27 0 00-10-17l-6-6c-4-1-8 2-12 3z" fill="#a1616a"/><g opacity=".1"><path d="M336 260l-3-6c-3-3-9-3-14-2-9 1-19 1-25-5-2-2-3-6-6-8-6-5-18 0-25-4-6-4-6-12-11-17s-15-4-22-2a6 6 0 01-4 1c-2-1-2-4-1-6 3-10 5-20 11-29l5-11c2-6 1-13 4-19l-8 7c-4 6-2 14-5 21l-5 11c-6 9-8 19-11 29-1 2-1 5 1 6a6 6 0 004-1c7-2 17-3 22 2s5 13 11 17c7 4 19-1 25 4 3 2 4 6 6 8 6 6 16 6 25 5 5-1 11-1 14 2l3 5c3 3 9 2 12-1a30 30 0 004-6l-7-1zM354 249a28 28 0 00-1 2c3-3 8-5 10-9a21 21 0 002-3l-11 10z"/></g><path fill="#3f3d56" d="M556 447l3 287 14-2-3-285h-14zM640 499l3 287 14-2-3-285h-14zM902 644v-9l-1-51v-79l-1-6h-14l1 6v75l1 26v54l1-1 6-6z"/><path fill="#f50057" d="M625 545l-8 12 8 54 68 19h110l66 4 31-21-5-37-24-31H625z"/><path d="M617 557l-4 33s-21 65 148 61 140-17 140-17l-1-38s6 18-80 15-166-10-166-10-30 5-37-44z" fill="#3f3d56"/><path d="M758 259c-10 5-17 13-22 23s-8 19-10 30l-8 32c-2 20 0 41 9 58s26 32 45 36h23a187 187 0 0041-9c14-4 28-12 34-25 4-7 4-16 4-25a264 264 0 00-11-67c-2-7-4-13-8-19s-9-9-14-13c-24-15-54-34-83-21z" fill="#fbbebe"/><path d="M758 259c-10 5-17 13-22 23s-8 19-10 30l-8 32c-2 20 0 41 9 58s26 32 45 36h23a187 187 0 0041-9c14-4 28-12 34-25 4-7 4-16 4-25a264 264 0 00-11-67c-2-7-4-13-8-19s-9-9-14-13c-24-15-54-34-83-21z" opacity=".1"/><path d="M747 385a45 45 0 0010 10c9 7 22 8 33 8 10 0 20 0 26-8 3-3 4-7 5-11a509 509 0 0014-76h26c12 49 11 100 10 151l-2 73-17-2c-40-4-81-8-122-9a697 697 0 00-71 2l37-110c5-14 10-29 11-44 2-22-5-45 4-65 1-2 1-4 3-4l5-1c4 1 14 0 16 2 4 3 2 4 0 9-2 9-4 17-4 27 0 17 5 35 16 48z" fill="#f50057"/><path d="M902 644l13-19c-2-4-5-8-6-13-3-6-5-14-6-21l-2-7c-5-26-10-52-12-79v-6-1-8a193 193 0 012-21v-1l68-3h6c4 0 8 0 11-2 5-4 6-12 6-18a267 267 0 00-6-50c-2-12-6-25-14-34-7-8-17-13-20-23l-4-11-7-9a119 119 0 01-23-31c-4-8-8-17-13-23l-1-1c-5-4-10-6-16-3a20 20 0 00-3 2 38 38 0 00-6 5 135 135 0 00-16 23 128 128 0 00-8 18 124 124 0 00-5 15l-2 12c-2 14-2 29-2 43l2 40 1 10 3 19a296 296 0 002 9 162 162 0 013 17v2a82 82 0 010 10l-1 12v8a93 93 0 002 14 90 90 0 009 24l1 2 16 27a115 115 0 019 26l2 9 2 14 1 2a300 300 0 007 30z" fill="#464353"/><path d="M889 565v2a128 128 0 01-2 14 85 85 0 01-4 17 59 59 0 01-5 11 49 49 0 01-7 8c-6 6-14 8-23 11a57 57 0 00-11 4l-2 1-10 7-9 8a16 16 0 00-1 1 38 38 0 00-3 10c-5 22-11 45-15 68v5a2 2 0 00-1 0c-26 16-54 31-83 42l-6-52a63 63 0 010-13c0-6 3-13 4-19a34 34 0 00-4-19l-3-7c0-2 1-5 4-6 2-2 2-5 1-8a24 24 0 00-1-4c-2-5-4-9-2-13a5 5 0 000-3l-2-3c-2-1 0-4 1-6a24 24 0 001-7v-4a39 39 0 011-5 41 41 0 0117-23l12-7a112 112 0 0011-9l28-21a347 347 0 0132-19l7-4 7-4c9-4 18-2 27 0l11 4a52 52 0 0110 5c9 4 15 11 18 20 2 6 2 12 2 18z" fill="#f86d70"/><path d="M889 565v2a128 128 0 01-2 14 85 85 0 01-4 17 59 59 0 01-5 11 49 49 0 01-7 8c-6 6-14 8-23 11a57 57 0 00-11 4l-2 1-10 7-9 8a16 16 0 00-1 1 38 38 0 00-3 10c-5 22-11 45-15 68v5a2 2 0 00-1 0c-26 16-54 31-83 42l-6-52a63 63 0 010-13c0-6 3-13 4-19a34 34 0 00-4-19l-3-7c0-2 1-5 4-6 2-2 2-5 1-8a24 24 0 00-1-4c-2-5-4-9-2-13a5 5 0 000-3l-2-3c-2-1 0-4 1-6a24 24 0 001-7v-4a39 39 0 011-5 41 41 0 0117-23l12-7a112 112 0 0011-9l28-21a347 347 0 0132-19l7-4 7-4c9-4 18-2 27 0l11 4a52 52 0 0110 5c9 4 15 11 18 20 2 6 2 12 2 18z" opacity=".1"/><path d="M794 399a2 2 0 10-4 2h-1l30 61 6-2-30-61z" fill="#3f3d56"/><circle cx="831" cy="271" r="64" fill="#fbbebe"/><path d="M915 231a85 85 0 00-2-15c-4-16-10-32-22-43a88 88 0 00-3-9 94 94 0 00-15-27c-4-4-9-9-15-9l-5-1a9 9 0 01-2-3 26 26 0 00-26-9h-1l-2 1 2 2 3 6 2 6c-10 1-18 9-26 15l-18 17-1 1a8 8 0 00-1 1 4 4 0 000 1 4 4 0 00-1 0 2 2 0 000 1 3 3 0 001 2h13v5a67 67 0 00-5 4 59 59 0 00-6 6 77 77 0 00-17 46v6l1 3a7 7 0 001 4 7 7 0 002 2h1l1 1c4 2 6 6 10 9h1v1a8 8 0 001 0l1 1h2l1 1h6a72 72 0 009 0l26-3c6-1 12-2 17 0l14 5 4 1h3l1 1h5l1 1h9l2 1h8a26 26 0 006 0l1-1h1c4-1 6-5 8-8a34 34 0 003-9l1-1v-3-2l1-2v-3l-1-3zm-25-59l-3-2a10 10 0 013 2zM708 268c-7-1-15-5-22-3-5 1-9 4-13 7a150 150 0 00-34 40 21 21 0 00-4 7l2 9c7 21 21 37 28 58s4 44-1 66a278 278 0 01-31 77 44 44 0 01-7 10c-3 3-8 6-10 10l-2 7c-2 6-7 11-8 17 0 5 2 9 4 14a39 39 0 01-1 24c-5 14-18 27-15 41 9-3 19-6 23-14l4-8c5-4 13 0 18-4 4-3 4-9 3-13l-6-13c-3-9 1-18 0-26l-1-12c-1-8 4-15 9-20s13-9 20-12l26-13c10-5 20-11 23-21l1-12a767 767 0 0140-205c3-9 10-16 14-24-21-2-39 15-60 13z" fill="#464353"/><path d="M852 647c3 14 4 28 5 43a487 487 0 01-60 42 2 2 0 00-1 0 15 15 0 00-7-8l-22-46c-4-9-8-17-10-26v-1l-3-21a62 62 0 00-3-12l-4-10c-2-4-4-8-4-13v-4a11 11 0 00-3-3 10 10 0 01-3-9c-6 0-10 6-12 12a67 67 0 01-9 15 28 28 0 01-9 8h-1c-8 4-18 3-27 1-8-1-16-3-23-8v-1a29 29 0 01-5-5c-6-7-8-17-9-26l-1-3a96 96 0 010-19v-5-3l1-5c1-6 2-12 5-16a31 31 0 018-8 70 70 0 019-6 97 97 0 0115-8l3-1a30 30 0 0116-1 80 80 0 0013 1l35-4a77 77 0 0150 7 59 59 0 0120 23 118 118 0 016 11 14 14 0 011 6 8 8 0 010 1l-1 4c-1 6 4 10 6 15l1 11c1 5 4 9 6 14a175 175 0 019 22l4 16 2 6 2 14z" fill="#f86d70"/><path fill="#3f3d56" d="M959 499v7h-19l-39-1h-55l-50-1-86-1-31-1h-38l-51-1h-17l-2-5-14-37-3-7 2-8 9 6 6 1 91 11 17 2 36 5 36 4 14 2 82 10 23 3 19 2 68 9h2z"/><path fill="#504f60" d="M556 444l18 47 385 8v-51l-403-4z"/><path fill="#3f3d56" d="M576 496l3 287 14-2-3-285h-14zM958 506h-2a316 316 0 01-11 53l-5-53v-2l17-2z"/><path fill="#fff" d="M903 472l-147 3-45-15 122-7 70 19z"/><path d="M719 414a10 10 0 00-4 3 11 11 0 00-1 4l-3 15a6 6 0 000 4c1 1 3 2 4 1 0 3 0 6 2 8s5 4 7 2a5 5 0 008 1c-2 1-2 3-1 4a7 7 0 004 1 100 100 0 0052-6c2-1-3-20-3-22-1-4-1-10-5-13-10-8-26-9-37-8a64 64 0 00-23 6z" fill="#fbbebe"/><path d="M868 416c-36 1-73 1-107-10a73 73 0 01-1 39l169 14c7 1 37 4 44 3s-59-24-56-30c7-19 32-30 14-30-22-1-40 14-63 14z" opacity=".1"/><path d="M869 418c-36 1-73 1-107-10a73 73 0 01-1 39l169 14c7 1 37 4 44 3s5-11 8-17c7-19-32-43-50-43-22-1-40 14-63 14z" fill="#464353"/><path d="M812 421a10 10 0 014 3 11 11 0 011 4l3 15a7 7 0 010 4c-1 1-3 2-4 1 0 3 0 6-2 8s-5 4-7 2a5 5 0 01-8 1c2 1 2 3 1 4a7 7 0 01-4 1 100 100 0 01-52-6c-2-1 2-20 3-22 1-4 1-10 5-13 10-8 26-9 37-8a64 64 0 0123 6z" fill="#fbbebe"/><path d="M573 389c-4 4-7 9-9 14a66 66 0 00-1 39 14 14 0 005 4c9 5 19 7 29 8l46 3c38 1 76-2 113 6-5-7-5-16-2-24s7-15 12-21c-17-6-35 3-53 2s-34-12-53-12h-11c-4-1-8-4-8-8 5 1 9-3 11-7l5-15c4-11 18-16 26-26l2-5a8 8 0 00-2-4c-7-9-17-14-25-21-3-3-9-12-12-13-7-1-12 8-16 12q-30 33-57 68z" fill="#464353"/><path d="M774 386a33 33 0 017 7 11 11 0 012 9 13 13 0 018-14z" opacity=".1"/><g opacity=".1"><path d="M829 124a87 87 0 00-4-9 25 25 0 00-3 1 85 85 0 015 9l2-1zM887 164h0zM794 168l2-1v-5h-11c-2 1-3 4-2 6zM911 248c-2 3-5 7-8 8l-9 1c-11 0-22-1-32-4l-14-5h-17l-26 3c-7 1-15 1-22-3-3-3-5-7-9-9l-4-3a7 7 0 01-1-4l-1-3a85 85 0 001 9 7 7 0 001 4l4 3c4 2 6 6 9 9 6 4 15 4 22 3l26-3h17l14 5a106 106 0 0041 3c3-1 6-5 8-8 4-7 5-15 4-23a39 39 0 01-4 17z"/></g><path d="M829 131l14 13s-12-5-14-13z" opacity=".1"/></svg>