<svg xmlns="http://www.w3.org/2000/svg" xmlns:xlink="http://www.w3.org/1999/xlink" width="844.675" height="595.262" xmlns:v="https://vecta.io/nano">
    <style>
        <![CDATA[.B{fill:#2f2e41}.C{fill:#ffb8b8}.D{fill:#3f3d56}.E{fill:#a0616a}]]>
    </style>
    <circle cx="431.393" cy="548" r="46" fill="#ffd700" />
    <g fill="#f2f2f2">
        <path d="M706.199 591.416c25.735-7.729 53.094-15.788 73.503-34.161 18.238-16.418 30.55-41.489 22.995-66.111-7.54-24.572-30.124-40.956-53.442-49.105-13.225-4.622-27.061-7.186-40.891-9.2-15.035-2.19-30.136-3.984-45.23-5.71q-91.677-10.486-184.044-12.811c-30.385-.765-60.764-.747-91.152-.306-27.139.394-55.722.384-80.899-11.151-19.578-8.97-37.348-25.289-42.803-46.734-6.297-24.755 5.318-49.964 21.98-67.892 8.783-9.45 19.047-17.404 29.636-24.717 11.487-7.934 23.375-15.306 35.521-22.188 23.921-13.547 48.93-25.077 74.767-34.469 12.746-4.634 25.68-8.633 38.728-12.321 11.017-3.115 22.068-6.234 32.716-10.477 20.583-8.204 40.161-22.1 45.395-44.881 4.96-21.591-3.403-45.031-18.065-61.071-16.963-18.557-42.539-26.692-67.06-28.008-27.528-1.478-54.422 5.412-80.297 14.156-27.597 9.326-54.599 20.049-82.778 27.603a556.96 556.96 0 0 1-85.196 15.837c-14.082 1.5-28.59 3.193-42.756 2.045-11.872-.962-23.684-4.454-32.434-12.88-7.503-7.225-11.972-17.154-10.435-27.632.279-1.903 3.17-1.094 2.893.798-1.87 12.755 6.8 24.509 17.484 30.529 12.348 6.958 27.374 6.968 41.122 6.172 29.809-1.8 59.416-6.08 88.515-12.796 28.593-6.531 56.164-15.866 83.704-25.839 26.156-9.472 52.897-18.716 80.84-20.767 24.246-1.78 49.752 1.752 70.874 14.423 18.564 11.136 32.215 29.707 36.565 51.018 4.25 20.825-1.636 41.785-17.4 56.317-16.321 15.046-38.701 21.479-59.557 27.404-26.452 7.514-52.337 16.298-77.392 27.703-25.397 11.528-49.753 25.221-72.8 40.928-22.246 15.202-44.201 34.331-51.237 61.451-3.277 12.633-2.672 26.032 2.812 37.965 4.876 10.61 12.907 19.535 22.262 26.419 22.321 16.424 50.453 19.797 77.414 20.132l90.855-.148q92.599 1.52 184.819 11.273 23.108 2.446 46.158 5.407c13.822 1.776 27.69 3.541 41.278 6.695 24.162 5.608 47.674 16.392 62.692 36.878a61.32 61.32 0 0 1 11.947 30.446c1.051 11.524-1.77 23.069-6.98 33.321-11.532 22.69-33.134 37.123-56.073 46.605-12.287 5.079-25.032 8.926-37.752 12.746-1.853.557-2.645-2.338-.798-2.893z" />
        <circle cx="125.893" cy="69.5" r="24" />
        <circle cx="292.393" cy="115" r="24" />
        <circle cx="433.393" cy="24" r="24" />
        <circle cx="521.393" cy="126" r="24" />
        <circle cx="402.393" cy="244" r="24" />
        <circle cx="251.393" cy="301" r="24" />
        <circle cx="411.393" cy="390" r="24" />
        <circle cx="583.393" cy="440" r="24" />
        <circle cx="784.393" cy="429" r="24" />
    </g>
    <path d="M426.465 68.003c-71.892.508-130.756 58.93-131.777 130.816l-.013 11.434c.001 18.636 15.108 33.744 33.744 33.746h0a33.77 33.77 0 0 0 33.761-33.798l-.006-7.202c-.006-30.69 21.774-57.064 51.911-62.862s60.148 10.615 71.527 39.117.925 61.07-24.918 77.624l.012.014s-48.028 30.92-62.671 73.335l.012.003c-2.575 8.689-3.879 17.705-3.874 26.768l.643 62.778c.308 18.993 15.795 34.227 34.79 34.222h0c9.265 0 18.148-3.696 24.679-10.268s10.172-15.477 10.115-24.743l-.227-54.489c0-26.045 25.125-51.995 45.764-68.917 23.766-19.487 40.868-46.043 47.737-75.999a86.76 86.76 0 0 0 2.499-18.833A132.75 132.75 0 0 0 426.465 68.003z" fill="#ffd700" />
    <path d="M843.485 595.262H1.191a1.19 1.19 0 0 1-1.187-1.191 1.19 1.19 0 0 1 1.187-1.191h842.294a1.19 1.19 0 1 1 0 2.381z" class="D" />
    <circle cx="628.449" cy="242.996" r="30" class="B" />
    <path d="M573.012 582.129h-12.259l-5.833-47.288h18.095l-.003 47.288z" class="E" />
    <use xlink:href="#B" class="B" />
    <path d="M668.012 582.129h-12.259l-5.833-47.288h18.095l-.003 47.288z" class="E" />
    <use xlink:href="#B" x="95" class="B" />
    <circle cx="623.89" cy="248.61" r="24.561" class="E" />
    <path d="M638.529 352.406l10.99-25.25c5.47-12.139 2.684-26.409-6.95-35.6-.966-.954-1.991-1.846-3.07-2.67-5.422-4.242-12.105-6.554-18.99-6.57a32.18 32.18 0 0 0-13.4 2.98c-.36.16-.71.33-1.07.5-.69.33-1.37.69-2.03 1.06a31.68 31.68 0 0 0-15.7 23.88l-4.85 40.64c-1.22 3.19-44.74 118.39-29.52 206.34.332 1.928 1.88 3.415 3.82 3.67l15.43 2.1c2.337.32 4.524-1.221 5.01-3.53l25.89-123.41c.332-1.578 1.698-2.726 3.31-2.78s3.052.998 3.49 2.55l36.58 129.78a4.47 4.47 0 0 0 4.31 3.28 5.12 5.12 0 0 0 .87-.08l18.85-3.63a4.47 4.47 0 0 0 3.63-4.81c-2.77-30.89-17.49-185.62-36.6-208.45z" class="B" />
    <path d="M528.439 269.05c-.345 2.956.637 5.913 2.682 8.075s4.942 3.308 7.913 3.128l13.729 32.992 10.385-15.394-14.629-28.97a10.11 10.11 0 0 0-20.079.169zm94.089 116.576c2.955-.353 5.602-1.997 7.228-4.489a10.06 10.06 0 0 0 1.199-8.424l28.885-21.038-17.39-6.512-24.764 20.977a10.11 10.11 0 0 0 4.842 19.487z" class="E" />
    <path d="M575.44 335.241c-1.107-.001-2.212-.11-3.298-.325-5.336-1.015-9.815-4.621-11.948-9.616l-19.234-23.453a4.5 4.5 0 0 1 1.111-6.681l13.684-8.471a4.5 4.5 0 0 1 6.215 1.49l13.556 22.334 25.961-19.187c4.273-2.24 9.542-1.008 12.378 2.894s2.381 9.295-1.068 12.667l-25.912 23.637c-3.045 3.018-7.159 4.711-11.446 4.71zm70.15 35.272c-.035 0-.071 0-.106-.001a4.51 4.51 0 0 1-3.311-1.57l-12.166-14.193a4.5 4.5 0 0 1 .92-6.673l22.781-15.187-20.638-24.812a9.72 9.72 0 0 1 14.887-12.183l25.083 24.513a16.53 16.53 0 0 1 5.228 14.434c-.733 5.378-4.062 10.053-8.903 12.506l-20.5 21.753a4.51 4.51 0 0 1-3.275 1.413z" class="B" />
    <path d="M617.645 318.214a4.63 4.63 0 0 1-.584-.037 4.46 4.46 0 0 1-3.71-3.069l-9.142-28.029c-.474-1.465.207-3.056 1.594-3.725l.297-.14.807-.375c4.263-1.977 8.904-3.008 13.603-3.023 6.101.011 12.065 1.804 17.161 5.157a3.13 3.13 0 0 1 .901 4.294l-17.15 26.868c-.817 1.297-2.244 2.082-3.777 2.08z" fill="#e6e6e6" />
    <g class="B">
        <circle cx="652.101" cy="219.786" r="9.817" />
        <path d="M618.449 208.996h0c-14.359 0-26 11.641-26 26v11h13.529l6.471-11 1.941 11h41.059l-11-11c0-14.359-11.641-26-26-26zm38.698 4.066a15.15 15.15 0 0 1 16.481-10.396c6.256 1.046 11.202 6.075 14.149 11.691s4.308 11.903 6.289 17.928 4.791 12.084 9.793 15.984 12.677 4.958 17.59.946a20.12 20.12 0 0 1-37.477 7.181c-2.592-4.612-3.261-10.017-4.03-15.251s-1.767-10.65-4.862-14.94-8.888-7.093-13.804-5.139z" />
    </g>
    <path d="M337.947 228.038h0c-18.636-.002-33.743-15.11-33.744-33.746l.013-11.434a131.51 131.51 0 0 1 15.359-59.909 131.81 131.81 0 0 0-25.359 75.909l-.013 11.434c.001 18.636 15.108 33.744 33.744 33.746h0c15.111-.006 28.379-10.049 32.488-24.591-6.179 5.541-14.189 8.601-22.488 8.591zm90.806-88.929c21.002 1.003 40.171 12.257 51.283 30.107s12.747 40.019 4.376 59.306a64 64 0 1 0-107.426-66.985 63.87 63.87 0 0 1 51.767-22.428zm10.382 298.929h0c-18.995.004-34.482-15.23-34.79-34.222l-.643-62.778a93.99 93.99 0 0 1 3.874-26.768l-.012-.003a95.07 95.07 0 0 1 5.494-12.701 110.01 110.01 0 0 0-15.494 28.701l.012.003c-2.575 8.689-3.879 17.705-3.874 26.768l.643 62.778c.308 18.993 15.795 34.227 34.79 34.222h0c15.462-.003 29.068-10.206 33.402-25.048a34.66 34.66 0 0 1-23.402 9.048z" class="D" />
    <path d="M126.541 582.585l12.259-.001 5.833-47.288-18.095.001.003 47.288z" class="C" />
    <use xlink:href="#C" class="B" />
    <path d="M82.541 582.585l12.259-.001 5.833-47.288-18.095.001.003 47.288z" class="C" />
    <g class="B">
        <use xlink:href="#C" x="-44" />
        <path d="M93.254 568.041l-11.975-.63c-1.247-.066-2.416-.628-3.246-1.561s-1.252-2.16-1.172-3.406l14.313-158.466 65.911 17.786 6.35-1.732-19.858 140.285c-.348 2.174-2.16 3.814-4.358 3.945l-12.909.601c-1.305.072-2.581-.405-3.518-1.316s-1.45-2.173-1.414-3.48l2.339-84.196a1.56 1.56 0 0 0-1.377-1.591 1.56 1.56 0 0 0-1.706 1.231l-22.557 88.812c-.439 2.173-2.352 3.733-4.569 3.726a4.25 4.25 0 0 1-.253-.007z" />
    </g>
    <circle cx="128.742" cy="249.759" r="24.561" class="C" />
    <path d="M87.85 321.918l2.701 58.267.976 21.199a4.64 4.64 0 0 0 3.074 4.175l63.336 22.943c.512.19 1.054.285 1.6.28 1.26.006 2.469-.501 3.349-1.404s1.354-2.125 1.315-3.385l-2.597-104.767c-.352-17.732-13.259-32.71-30.744-35.677l-1.859-.27a36.25 36.25 0 0 0-29.165 9.441c-8.126 7.474-12.516 18.168-11.986 29.196z" fill="#ccc" />
    <path d="M188.192 416.876c-3.038-.943-5.451-3.266-6.508-6.265s-.635-6.322 1.14-8.962l-21.478-28.56 18.534-1.147 17.554 27.297a10.11 10.11 0 0 1-9.242 17.637z" class="C" />
    <path d="M173.091 396.481c-1.149-.466-2.064-1.373-2.541-2.518l-32.358-77.094c-1.727-4.107-1.131-8.823 1.563-12.371s7.078-5.388 11.497-4.826 8.203 3.44 9.924 7.549l32.358 77.095a4.68 4.68 0 0 1-2.5 6.118l-14.365 6.029a4.64 4.64 0 0 1-3.577.017z" fill="#ccc" />
    <path d="M120.845 393.762l31.079-59.509a4.88 4.88 0 0 1 6.575-2.063l45.112 23.56a4.88 4.88 0 0 1 2.063 6.575l-31.079 59.509a4.88 4.88 0 0 1-6.575 2.063l-45.111-23.56a4.88 4.88 0 0 1-2.063-6.575z" class="D" />
    <path d="M141.688 366.574c-1.12-2.977-3.582-5.248-6.638-6.127s-6.349-.261-8.879 1.667l-29.778-19.754-.051 18.57 28.286 15.912a10.11 10.11 0 0 0 17.06-10.267z" class="C" />
    <path d="M104.038 370.75l-24.337-19.278c-5.344-1.794-9.466-6.099-11.028-11.516s-.364-11.255 3.205-15.619l22.097-28.96c3.174-3.879 8.713-4.842 13.01-2.262s6.051 7.921 4.119 12.546l-17.484 28.6 25.694 12.187c1.209.573 2.114 1.637 2.486 2.921s.177 2.667-.538 3.798l-10.372 16.414a4.68 4.68 0 0 1-3.167 2.111 3.11 3.11 0 0 1-.077.012c-1.283.194-2.59-.152-3.609-.956z" fill="#ccc" />
    <path d="M110.183 266.205c-.214-.625-.126-1.313.237-1.865s.961-.904 1.619-.954a4.93 4.93 0 0 1 3.476 1.715c.889 1.025 1.924 1.913 3.071 2.637 1.188.599 2.8.514 3.477-.628.636-1.072.2-2.508-.185-3.753-.98-3.169-1.528-6.455-1.63-9.77-.111-3.7.411-7.562 2.46-10.448 2.644-3.725 7.371-5.139 11.845-5.036s8.875 1.484 13.307 2.357c1.53.301 3.328.455 4.352-.73 1.088-1.261.688-3.301.226-5.004-1.201-4.417-2.475-8.985-5.265-12.552a18.9 18.9 0 0 0-12.061-6.79 28.94 28.94 0 0 0-13.462 1.528c-7.011 2.21-13.18 6.508-17.683 12.319-4.641 6.18-6.647 13.946-5.578 21.6 1.044 6.667 4.577 12.69 9.886 16.855z" class="B" />
    <path d="M421.258 582.78c-13.248-5.77-23.014-17.431-26.37-31.486s.088-28.87 9.3-40.003a46 46 0 0 0 15.723 81.711 46 46 0 0 0 46.846-15.247 45.97 45.97 0 0 1-45.499 5.025z" class="D" />
    <defs>
        <path id="B" d="M551.996 578.626h23.644a0 0 0 0 1 0 0v14.887a0 0 0 0 1 0 0h-38.531a0 0 0 0 1 0 0h0a14.887 14.887 0 0 1 14.887-14.887z" />
        <path id="C" d="M162.445 593.967l-38.531.002h0l-.001-14.887h0l23.644-.001a14.89 14.89 0 0 1 14.888 14.886h0 0z" />
    </defs>
</svg>